#N canvas 103 78 1665 865 10;
#X declare -path seq3;
#X text 41 30 Sampler Manager;
#X obj 27 670 s route-key-rec-select;
#X obj 91 406 r rec-state;
#X msg 125 578 \; led 5;
#X msg 27 647 1;
#X msg 179 579 \; led 6;
#X msg 196 700 0;
#X obj 196 723 s route-key-rec-select;
#X obj 292 674 s disable-key-rec-trigger;
#X msg 61 574 \; led 0;
#X text 53 340 record states are 0=play mode \, 1=select key \, 2=wait
for trig \, 3= recording \, 4=finishing up;
#X msg 234 579 \; led 1;
#X obj 91 471 v rec-state;
#X obj 140 502 hradio 15 1 0 5 empty empty empty 0 -8 0 10 -262144
-1 -1 0;
#X obj 214 385 loadbang;
#X msg 214 407 0;
#X obj 91 439 t b f;
#X text 286 15 Each subpatch represents a key on the organelle.;
#X msg 88 772 \; screenLine5 Select a Key \;;
#X obj 1248 123 declare -path seq3;
#X obj 1247 274 cg-seq3 1 1;
#X obj 1335 161 r notes;
#X obj 1247 160 r aux;
#X obj 1335 212 s \$0-muter;
#N canvas 8 50 875 541 seq-control 0;
#X obj 139 238 outlet;
#X obj 67 100 r cgSc-1-rec;
#X obj 187 99 r cgSc-1-play;
#X obj 67 132 t b;
#X msg 67 154 2;
#X obj 187 121 t b;
#X msg 187 143 1;
#X obj 300 126 t b;
#X obj 300 104 r cgSc-1-latch;
#X msg 300 148 3;
#X obj 508 38 r cgSc-1-aux;
#X obj 508 60 sel 1;
#X msg 501 193 1;
#X obj 598 70 r seq3-1-actions;
#X obj 598 94 sel 3;
#X msg 598 116 1;
#X obj 501 144 spigot 0;
#X obj 501 166 t b b;
#X msg 603 162 0;
#X text 437 5 when aux is pressed after recording starts immediatley
end the rec and play the loop;
#X connect 1 0 3 0;
#X connect 2 0 5 0;
#X connect 3 0 4 0;
#X connect 4 0 0 0;
#X connect 5 0 6 0;
#X connect 6 0 0 0;
#X connect 7 0 9 0;
#X connect 8 0 7 0;
#X connect 9 0 0 0;
#X connect 10 0 11 0;
#X connect 11 0 16 0;
#X connect 12 0 0 0;
#X connect 13 0 14 0;
#X connect 14 0 15 0;
#X connect 15 0 16 1;
#X connect 16 0 17 0;
#X connect 17 0 12 0;
#X connect 17 1 18 0;
#X connect 18 0 16 1;
#X restore 1321 244 pd seq-control;
#X obj 1247 188 cg-shortcut 1;
#X obj 427 454 r cgSc-1-rec-mode;
#X obj 1231 541 cg-metro 1;
#X obj 1231 589 cg-print-line5;
#X obj 1269 389 r seq3-1-actions;
#X obj 1326 527 f;
#X obj 1326 549 spigot 0, f 14;
#X obj 1421 341 r \$0-muter;
#X msg 1421 392 0;
#X obj 1453 412 t b b;
#X msg 1485 442 1;
#X obj 1421 364 sel 1;
#X obj 1326 476 del 1;
#X obj 1231 487 loadbang;
#X msg 1231 509 120;
#N canvas 9 50 1745 884 knobs+soundOut 0;
#X obj 1072 295 *~ 1;
#X obj 992 504 throw~ outL;
#X obj 1136 475 throw~ outR;
#X obj 872 231 r knob3;
#X obj 951 270 sig~;
#X obj 951 292 lop~ 5;
#X obj 955 333 -~ 1;
#X obj 1023 430 *~;
#X obj 1003 354 *~;
#X obj 955 355 abs~;
#X obj 944 88 catch~ samp_voice_out;
#X obj 958 123 *~ 1;
#X text 937 48 get the output from voices and feed it into rev3~ \,
a fun reverb included with Pd;
#X obj 931 207 rev3~ 100 80 3000 20;
#X obj 947 559 * 100;
#X obj 947 770 s screenLine3;
#X obj 947 651 i;
#X obj 1042 534 r \$0-muter;
#X msg 1042 655 0;
#X obj 1074 585 t b b;
#X msg 1080 655 1;
#X obj 1042 557 sel 1;
#X obj 947 712 spigot 1, f 14;
#X msg 948 743 3: Reverb \$1%;
#X obj 84 519 bang;
#X obj 117 591 - 0.5;
#X obj 117 613 * 200;
#X obj 117 641 i;
#X obj 38 606 - 0.5;
#X obj 38 628 * 200;
#X obj 38 656 i;
#X obj 38 684 abs;
#X obj 42 490 detent 0.075;
#X obj 43 219 r knob1;
#X obj 137 343 r \$0-muter;
#X msg 137 394 0;
#X obj 169 394 t b b;
#X msg 201 420 1;
#X obj 137 366 sel 1;
#X obj 42 461 spigot 1, f 14;
#X obj 42 244 t f f;
#X obj 73 276 detent 0.075;
#X obj 123 319 s knob1-detent;
#X obj 42 370 f;
#X obj 473 233 > 0.5;
#X obj 473 255 i;
#X obj 473 302 ==;
#X obj 473 211 r knob2;
#X obj 525 375 s mono-poly;
#X obj 472 537 i;
#X obj 567 440 r \$0-muter;
#X msg 567 521 0;
#X obj 599 491 t b b;
#X msg 631 521 1;
#X obj 567 463 sel 1;
#X obj 472 598 spigot 1, f 14;
#X obj 472 627 sel 1 0;
#X obj 1371 219 r knob4;
#X obj 1466 421 r \$0-muter;
#X msg 1466 572 0;
#X obj 1498 482 t b b;
#X msg 1504 572 1;
#X obj 1466 444 sel 1;
#X obj 1371 609 spigot 1, f 14;
#X obj 1371 548 f;
#X obj 1371 690 i;
#X obj 1371 663 * 100;
#X obj 1371 637 moses 0.98;
#X msg 1438 673 bang;
#X obj 1371 768 s screenLine4;
#X obj 1438 716 s screenLine4;
#X msg 1438 694 4: Decay Off;
#X msg 1371 746 4: Decay \$1 %;
#X obj 169 145 r seq3-1-k1;
#X obj 281 123 r seq3-1-k2;
#X obj 413 101 r seq3-1-k3;
#X obj 857 268 f;
#X obj 1181 276 r seq3-1-k4;
#X msg 495 655 \; screenLine2 2: Mono/Poly: Poly \;;
#X msg 472 702 \; screenLine2 2: Mono/Poly: Mono \;;
#X msg 38 709 \; screenLine1 1: Samp Speed: -\$1% \;;
#X msg 115 670 \; screenLine1 1: Samp Speed: +\$1% \;;
#X msg 84 546 \; screenLine1 1: Samp Speed: ORIG \;;
#X obj 1001 481 *~ 1;
#X obj 1094 424 *~ 1;
#X connect 0 0 7 1;
#X connect 3 0 76 0;
#X connect 4 0 5 0;
#X connect 5 0 6 0;
#X connect 5 0 7 0;
#X connect 6 0 9 0;
#X connect 7 0 83 0;
#X connect 7 0 84 0;
#X connect 8 0 83 0;
#X connect 8 0 84 0;
#X connect 9 0 8 0;
#X connect 10 0 11 0;
#X connect 11 0 8 1;
#X connect 11 0 13 0;
#X connect 11 0 13 1;
#X connect 13 0 0 0;
#X connect 13 1 0 0;
#X connect 13 2 0 0;
#X connect 13 3 0 0;
#X connect 14 0 16 0;
#X connect 16 0 22 0;
#X connect 17 0 21 0;
#X connect 18 0 22 1;
#X connect 19 0 16 0;
#X connect 19 1 20 0;
#X connect 20 0 22 1;
#X connect 21 0 18 0;
#X connect 21 1 19 0;
#X connect 22 0 23 0;
#X connect 23 0 15 0;
#X connect 24 0 82 0;
#X connect 25 0 26 0;
#X connect 26 0 27 0;
#X connect 27 0 81 0;
#X connect 28 0 29 0;
#X connect 29 0 30 0;
#X connect 30 0 31 0;
#X connect 31 0 80 0;
#X connect 32 0 28 0;
#X connect 32 1 24 0;
#X connect 32 2 25 0;
#X connect 33 0 40 0;
#X connect 34 0 38 0;
#X connect 35 0 39 1;
#X connect 36 0 43 0;
#X connect 36 1 37 0;
#X connect 37 0 39 1;
#X connect 38 0 35 0;
#X connect 38 1 36 0;
#X connect 39 0 32 0;
#X connect 40 0 43 0;
#X connect 40 1 41 0;
#X connect 41 0 42 0;
#X connect 41 1 42 0;
#X connect 41 2 42 0;
#X connect 43 0 39 0;
#X connect 44 0 45 0;
#X connect 45 0 46 0;
#X connect 46 0 48 0;
#X connect 46 0 49 0;
#X connect 47 0 44 0;
#X connect 49 0 55 0;
#X connect 50 0 54 0;
#X connect 51 0 55 1;
#X connect 52 0 49 0;
#X connect 52 1 53 0;
#X connect 53 0 55 1;
#X connect 54 0 51 0;
#X connect 54 1 52 0;
#X connect 55 0 56 0;
#X connect 56 0 79 0;
#X connect 56 1 78 0;
#X connect 57 0 64 0;
#X connect 58 0 62 0;
#X connect 59 0 63 1;
#X connect 60 0 64 0;
#X connect 60 1 61 0;
#X connect 61 0 63 1;
#X connect 62 0 59 0;
#X connect 62 1 60 0;
#X connect 63 0 67 0;
#X connect 64 0 63 0;
#X connect 65 0 72 0;
#X connect 66 0 65 0;
#X connect 67 0 66 0;
#X connect 67 1 68 0;
#X connect 68 0 71 0;
#X connect 71 0 70 0;
#X connect 72 0 69 0;
#X connect 73 0 40 0;
#X connect 74 0 44 0;
#X connect 75 0 76 0;
#X connect 76 0 14 0;
#X connect 76 0 4 0;
#X connect 77 0 64 0;
#X connect 83 0 1 0;
#X connect 84 0 2 0;
#X restore 479 615 pd knobs+soundOut;
#X obj 427 568 s rec-state;
#X obj 427 476 sel 0 1, f 16;
#X msg 427 498 0;
#X msg 481 500 1;
#X obj 700 594 r slot-choice;
#X obj 764 638 r rec-state;
#X obj 764 660 sel 2;
#X obj 796 691 t b;
#X msg 796 713 0;
#X msg 764 682 1;
#X obj 700 760 spigot;
#X obj 721 705 t b a;
#X obj 700 736 f;
#X msg 700 794 \; screenLine5 Slot \$1 Waiting \;;
#X msg 952 789 \; screenLine5 Slot \$1 Recording \;;
#X obj 952 594 r slot-choice;
#X obj 1016 638 r rec-state;
#X obj 1048 691 t b;
#X msg 1048 713 0;
#X msg 1016 682 1;
#X obj 952 760 spigot;
#X obj 973 705 t b a;
#X obj 952 736 f;
#X obj 1016 660 sel 3;
#X obj 92 534 sel 0 1 2 3, f 41;
#X obj 12 605 s \$0-:0;
#X obj 1326 413 r \$0-:0;
#X obj 773 428 poly 8 1, f 10;
#X obj 773 450 pack 0 0 0;
#X obj 773 472 route 1 2 3 4 5 6 7 8, f 47;
#X obj 630 260 sampler-voice 23;
#X obj 785 507 sampler-player;
#X obj 1280 364 s ply-mo;
#X obj 1247 296 t a a;
#X obj 1281 323 stripnote;
#X obj 1281 345 t b;
#X obj 351 262 sampler-voice 21;
#X obj 27 105 sampler-voice 1;
#X obj 186 109 sampler-voice 2;
#X obj 187 259 sampler-voice 20;
#X obj 350 208 sampler-voice 15;
#X obj 29 208 sampler-voice 13;
#X obj 493 259 sampler-voice 22;
#X obj 349 110 sampler-voice 3;
#X obj 491 109 sampler-voice 4;
#X obj 629 109 sampler-voice 5;
#X obj 775 108 sampler-voice 6;
#X obj 29 158 sampler-voice 7;
#X obj 186 158 sampler-voice 8;
#X obj 348 159 sampler-voice 9;
#X obj 491 160 sampler-voice 10;
#X obj 627 158 sampler-voice 11;
#X obj 777 157 sampler-voice 12;
#X obj 185 209 sampler-voice 14;
#X obj 491 208 sampler-voice 16;
#X obj 627 210 sampler-voice 17;
#X obj 780 210 sampler-voice 18;
#X obj 30 262 sampler-voice 19;
#X obj 780 263 sampler-voice 24;
#X obj 773 527 sampler-player;
#X obj 881 527 sampler-player;
#X obj 891 507 sampler-player;
#X obj 995 527 sampler-player;
#X obj 1005 507 sampler-player;
#X obj 1101 527 sampler-player;
#X obj 1111 507 sampler-player;
#X connect 2 0 16 0;
#X connect 4 0 1 0;
#X connect 6 0 7 0;
#X connect 12 0 13 0;
#X connect 12 0 65 0;
#X connect 14 0 15 0;
#X connect 15 0 16 0;
#X connect 16 0 12 0;
#X connect 16 1 12 0;
#X connect 20 0 74 0;
#X connect 21 0 25 1;
#X connect 22 0 25 0;
#X connect 24 0 20 1;
#X connect 25 0 20 0;
#X connect 25 1 23 0;
#X connect 26 0 42 0;
#X connect 27 0 28 0;
#X connect 27 1 28 1;
#X connect 27 2 28 2;
#X connect 29 0 30 0;
#X connect 30 0 31 0;
#X connect 31 0 28 3;
#X connect 32 0 36 0;
#X connect 33 0 31 1;
#X connect 34 0 37 0;
#X connect 34 1 35 0;
#X connect 35 0 31 1;
#X connect 36 0 33 0;
#X connect 36 1 34 0;
#X connect 37 0 30 0;
#X connect 37 0 27 1;
#X connect 38 0 39 0;
#X connect 39 0 27 0;
#X connect 42 0 43 0;
#X connect 42 1 44 0;
#X connect 43 0 41 0;
#X connect 44 0 41 0;
#X connect 45 0 53 0;
#X connect 46 0 47 0;
#X connect 47 0 50 0;
#X connect 47 1 48 0;
#X connect 48 0 49 0;
#X connect 49 0 51 1;
#X connect 50 0 52 0;
#X connect 51 0 54 0;
#X connect 52 0 53 0;
#X connect 52 1 51 1;
#X connect 53 0 51 0;
#X connect 56 0 63 0;
#X connect 57 0 64 0;
#X connect 58 0 59 0;
#X connect 59 0 61 1;
#X connect 60 0 62 0;
#X connect 61 0 55 0;
#X connect 62 0 63 0;
#X connect 62 1 61 1;
#X connect 63 0 61 0;
#X connect 64 0 60 0;
#X connect 64 1 58 0;
#X connect 65 0 9 0;
#X connect 65 0 6 0;
#X connect 65 0 8 0;
#X connect 65 0 66 0;
#X connect 65 1 3 0;
#X connect 65 1 4 0;
#X connect 65 1 18 0;
#X connect 65 2 5 0;
#X connect 65 2 6 0;
#X connect 65 2 8 0;
#X connect 65 3 11 0;
#X connect 67 0 37 0;
#X connect 68 0 69 0;
#X connect 68 1 69 1;
#X connect 68 2 69 2;
#X connect 69 0 70 0;
#X connect 70 0 100 0;
#X connect 70 1 72 0;
#X connect 70 2 101 0;
#X connect 70 3 102 0;
#X connect 70 4 103 0;
#X connect 70 5 104 0;
#X connect 70 6 106 0;
#X connect 70 7 105 0;
#X connect 74 0 68 0;
#X connect 74 1 75 0;
#X connect 75 0 76 0;
#X connect 76 0 73 0;
