#N canvas 12 50 1736 973 10;
#X obj 186 21 inlet;
#X obj 196 751 line~;
#X msg 238 646 0 0;
#X obj 128 668 pack 0 0;
#X obj 115 488 f;
#X obj 101 540 * 44.1;
#X obj 197 901 throw~ samp_voice_out;
#X obj 201 566 f;
#X obj 289 514 t b f;
#X text 262 180 second argument (key number);
#X obj 186 390 t b b b;
#X obj 366 746 vline~;
#X obj 361 776 *~;
#X obj 366 653 f 1000;
#X obj 406 415 r knob4;
#X obj 426 603 *;
#X obj 406 532 *;
#X obj 406 510 t f f;
#X obj 196 822 *~, f 22;
#X obj 366 681 pack 0 0;
#X obj 406 446 t f f;
#X text 476 467 if knob all the way up \, never decay;
#X text 478 418 do a simple amplitude decay;
#X obj 475 495 expr if($f1 > 0.98 \, 1 \, 0);
#X obj 197 856 hip~ 5;
#X text 277 858 cut DC;
#X obj 444 571 * 2;
#X obj 186 314 spigot 1;
#X obj 757 519 bang;
#X obj 279 246 ==;
#X obj 279 214 r route-key-rec-select;
#X obj 411 627 + 10;
#X obj 757 495 spigot 0;
#X obj 810 455 r mono-poly;
#X text 374 384 scale playback speed;
#X obj 326 395 / 100;
#X obj 326 417 mtof;
#X obj 326 439 / 8.1785;
#X obj 191 615 / 1;
#X obj 326 370 * 2400;
#X obj 310 478 / 2;
#X obj 326 345 r knob1-detent;
#X msg 366 710 1 8 \, \$2 \$1 8;
#X msg 757 557 0 8;
#X msg 302 624 set \$1-array;
#X obj 169 440 r \$0-duration;
#X obj 160 501 r \$0-duration;
#X obj 444 546 r \$0-duration;
#X obj 698 133 s \$0-duration;
#X obj 698 82 loadbang;
#X msg 698 104 1000;
#X obj 186 346 t b a;
#X obj 197 778 tabread4~ 1-array;
#X obj 194 72 stripnote;
#X obj 194 159 % 24;
#X obj 194 133 abs;
#X obj 194 94 expr if ($f1 > 59 \, $f1 - 60 \, $f1 - 12);
#X obj 194 181 + 1;
#X obj 752 428 r ply-mo;
#X obj 197 878 *~ 0.7;
#X connect 0 0 53 0;
#X connect 1 0 52 0;
#X connect 2 0 1 0;
#X connect 3 0 1 0;
#X connect 4 0 5 0;
#X connect 5 0 3 0;
#X connect 7 0 38 0;
#X connect 8 0 7 0;
#X connect 8 1 38 1;
#X connect 10 0 4 0;
#X connect 10 1 2 0;
#X connect 10 2 13 0;
#X connect 11 0 12 1;
#X connect 11 0 12 0;
#X connect 12 0 18 1;
#X connect 13 0 19 0;
#X connect 14 0 20 0;
#X connect 15 0 31 0;
#X connect 16 0 15 0;
#X connect 17 0 16 0;
#X connect 17 1 16 1;
#X connect 18 0 24 0;
#X connect 19 0 42 0;
#X connect 20 0 17 0;
#X connect 20 1 23 0;
#X connect 23 0 19 1;
#X connect 24 0 59 0;
#X connect 26 0 15 1;
#X connect 27 0 51 0;
#X connect 28 0 43 0;
#X connect 29 0 27 1;
#X connect 30 0 29 0;
#X connect 31 0 13 1;
#X connect 32 0 28 0;
#X connect 33 0 32 1;
#X connect 35 0 36 0;
#X connect 36 0 37 0;
#X connect 37 0 40 0;
#X connect 38 0 3 1;
#X connect 39 0 35 0;
#X connect 40 0 8 0;
#X connect 41 0 39 0;
#X connect 42 0 11 0;
#X connect 43 0 11 0;
#X connect 44 0 52 0;
#X connect 45 0 4 1;
#X connect 46 0 7 0;
#X connect 47 0 26 0;
#X connect 49 0 50 0;
#X connect 50 0 48 0;
#X connect 51 0 10 0;
#X connect 51 1 44 0;
#X connect 52 0 18 0;
#X connect 53 0 56 0;
#X connect 54 0 57 0;
#X connect 55 0 54 0;
#X connect 56 0 55 0;
#X connect 57 0 27 0;
#X connect 58 0 32 0;
#X connect 59 0 6 0;
